<svg xmlns="http://www.w3.org/2000/svg" viewBox="0 0 64 64">
  <rect width="64" height="64" rx="14" fill="#061933" />
  <g fill="none" stroke="#1f5eff" stroke-linecap="round" stroke-linejoin="round">
    <path d="M7 54H57" opacity="0.48" stroke-width="1.8" />
    <path d="M13 8V58" opacity="0.48" stroke-width="1.8" />
    <path d="M26 14L36 24L49 14" opacity="0.22" stroke-width="1.3" />
  </g>
  <path fill="#ffffff" d="M15 14H24V18L22.5 19.5V44.5L24 46V50H15V46L16.5 44.5V19.5L15 18Z" />
  <g fill="#061933">
    <rect x="19.2" y="18.3" width="1.8" height="27.4" rx="0.6" />
    <rect x="17" y="17.3" width="6.9" height="1.9" rx="0.6" />
    <rect x="17" y="44.8" width="6.9" height="1.9" rx="0.6" />
  </g>
  <path fill="#ffffff" d="M28 50V14H34L40 21L46 14H54V50H50.6V20.8L40 34L31.4 20.8V50Z" />
  <path fill="none" stroke="#061933" stroke-linecap="round" stroke-linejoin="round" stroke-width="2.7" opacity="0.94" d="M31.6 50V24L40 32L47.2 24V50" />
</svg>
