<svg xmlns="http://www.w3.org/2000/svg" viewBox="0 0 168 112" role="img" aria-labelledby="title desc">
  <title id="title">IM monogram logo</title>
  <desc id="desc">Minimal IM monogram with subtle technical accent guides.</desc>
  <g fill="none" stroke="#1f5eff" stroke-linecap="round" stroke-linejoin="round">
    <g opacity="0.5" stroke-width="1.8">
      <path d="M6 94H162" />
      <path d="M18 10V102" />
    </g>
    <g opacity="0.2" stroke-width="1.3">
      <path d="M60 18L96 54L140 18" />
      <path d="M96 54V94" />
    </g>
  </g>
  <path fill="#ffffff" d="M22 20H46V30L42 34V78L46 82V92H22V82L26 78V34L22 30Z" />
  <g fill="#061933">
    <rect x="33" y="30" width="3.5" height="52" rx="1" />
    <rect x="28" y="28.5" width="15.5" height="3.5" rx="1" />
    <rect x="28" y="80" width="15.5" height="3.5" rx="1" />
  </g>
  <path fill="#ffffff" d="M58 92V20H74L96 44L120 20H140V92H127V38L96 68L71 38V92Z" />
  <g fill="none" stroke="#061933" stroke-linecap="round" stroke-linejoin="round" opacity="0.94">
    <path d="M72 92V50L96 72L122 50V92" stroke-width="4.4" />
  </g>
</svg>
