<svg xmlns="http://www.w3.org/2000/svg" viewBox="0 0 160 112" role="img" aria-labelledby="title desc">
  <title id="title">IM monogram logo alternate</title>
  <desc id="desc">A blue-tinted notebook-grid IM monogram badge aligned to the site palette.</desc>
  <defs>
    <clipPath id="badge-clip-blue">
      <rect x="4" y="4" width="152" height="104" rx="24"/>
    </clipPath>
  </defs>
  <rect x="4" y="4" width="152" height="104" rx="24" fill="#edf3ff" stroke="#c7d7f7" stroke-width="4"/>
  <g clip-path="url(#badge-clip-blue)">
    <g stroke="#cadaf4" stroke-width="1" opacity="0.72">
      <path d="M16 8V104M28 8V104M40 8V104M52 8V104M64 8V104M76 8V104M88 8V104M100 8V104M112 8V104M124 8V104M136 8V104M148 8V104"/>
      <path d="M8 16H152M8 28H152M8 40H152M8 52H152M8 64H152M8 76H152M8 88H152M8 100H152"/>
    </g>
    <g stroke="#8fb4ef" stroke-width="1.6" opacity="0.92">
      <path d="M16 24H148M16 88H148M20 10V102M140 10V102"/>
    </g>
    <g stroke="#d5def3" stroke-width="1.2" opacity="0.58">
      <path d="M56 20L96 60L136 20"/>
      <path d="M96 60L136 100"/>
    </g>
  </g>
  <path fill="#1f5eff" d="M22 24H56V35L50 40V72L56 77V88H22V77L28 72V40L22 35Z"/>
  <g fill="#ffffff">
    <rect x="34" y="36" width="6" height="40" rx="1"/>
    <rect x="28" y="34" width="18" height="4" rx="1"/>
    <rect x="28" y="74" width="18" height="4" rx="1"/>
  </g>
  <path fill="#1f5eff" d="M60 88V24H75L98 50L124 24H139V88H126V44L98 74L73 44V88Z"/>
  <g fill="none" stroke="#ffffff" stroke-linecap="round" stroke-linejoin="round">
    <path d="M76 88V52L98 76L123 50V88" stroke-width="6"/>
    <path d="M91 88V68L98 76L105 68V88" stroke-width="5"/>
  </g>
</svg>
